<?xml version="1.0" encoding="UTF-8"?>
<svg version="1.1" xmlns="http://www.w3.org/2000/svg" width="20" height="20">
<path d="M0 0 C1.27875 0.00257812 2.5575 0.00515625 3.875 0.0078125 C5.15375 0.00523438 6.4325 0.00265625 7.75 0 C10.875 0.1328125 10.875 0.1328125 11.875 1.1328125 C11.97409302 3.46441305 12.00470504 5.79911192 12 8.1328125 C12.00386719 10.0509375 12.00386719 10.0509375 12.0078125 12.0078125 C11.875 15.1328125 11.875 15.1328125 10.875 16.1328125 C8.54339945 16.23190552 6.20870058 16.26251754 3.875 16.2578125 C2.59625 16.26039062 1.3175 16.26296875 0 16.265625 C-3.125 16.1328125 -3.125 16.1328125 -4.125 15.1328125 C-4.22409302 12.80121195 -4.25470504 10.46651308 -4.25 8.1328125 C-4.25257812 6.8540625 -4.25515625 5.5753125 -4.2578125 4.2578125 C-4.08423261 0.17357989 -4.08423261 0.17357989 0 0 Z M-2.125 3.1328125 C-2.19705511 4.81890216 -2.20886068 6.50781909 -2.1875 8.1953125 C-2.17847656 9.11441406 -2.16945312 10.03351562 -2.16015625 10.98046875 C-2.14855469 11.69074219 -2.13695312 12.40101562 -2.125 13.1328125 C-1.135 13.1328125 -0.145 13.1328125 0.875 13.1328125 C0.66875 12.5140625 0.4625 11.8953125 0.25 11.2578125 C0.064375 10.2059375 0.064375 10.2059375 -0.125 9.1328125 C0.535 8.4728125 1.195 7.8128125 1.875 7.1328125 C1.875 6.1428125 1.875 5.1528125 1.875 4.1328125 C3.195 4.1328125 4.515 4.1328125 5.875 4.1328125 C5.875 5.4528125 5.875 6.7728125 5.875 8.1328125 C6.535 8.4628125 7.195 8.7928125 7.875 9.1328125 C7.545 10.7828125 7.215 12.4328125 6.875 14.1328125 C7.865 13.8028125 8.855 13.4728125 9.875 13.1328125 C9.90188151 11.48706684 9.92134123 9.84119837 9.9375 8.1953125 C9.94910156 7.27878906 9.96070313 6.36226562 9.97265625 5.41796875 C10.13449049 3.16687923 10.13449049 3.16687923 8.875 2.1328125 C7.21070949 2.03457313 5.54218069 2.00307619 3.875 2.0078125 C2.9675 2.00523438 2.06 2.00265625 1.125 2 C-1.09466611 1.88107471 -1.09466611 1.88107471 -2.125 3.1328125 Z " fill="#1F41BB" transform="translate(6.125,1.8671875)"/>
</svg>
