<?xml version="1.0" encoding="UTF-8"?>
<svg version="1.1" xmlns="http://www.w3.org/2000/svg" width="20" height="20">
<path d="M0 0 C3.96 0 7.92 0 12 0 C12.33 1.65 12.66 3.3 13 5 C10.61223142 7.20409407 9.26843543 7.96644557 6 8.375 C2.73156457 7.96644557 1.38776858 7.20409407 -1 5 C-0.67 3.35 -0.34 1.7 0 0 Z M1 2 C1.33 2.99 1.66 3.98 2 5 C4.91482778 5.80967438 6.46113217 6.21845993 9.3125 5.0625 C9.869375 4.711875 10.42625 4.36125 11 4 C11 3.34 11 2.68 11 2 C7.7 2 4.4 2 1 2 Z " fill="#2140BB" transform="translate(4,11)"/>
<path d="M0 0 C3.29714793 0.32971479 4.6226839 0.6226839 7 3 C6.44444444 7.55555556 6.44444444 7.55555556 5 9 C2.0625 9.25 2.0625 9.25 -1 9 C-3 6 -3 6 -2.75 3.9375 C-2 2 -2 2 0 0 Z M0 3 C0.33 4.32 0.66 5.64 1 7 C1.99 6.67 2.98 6.34 4 6 C4 5.01 4 4.02 4 3 C2.68 3 1.36 3 0 3 Z " fill="#1E3EBD" transform="translate(8,1)"/>
</svg>
